<?xml version="1.0" encoding="UTF-8" standalone="no"?>
<!-- Created with Inkscape (http://www.inkscape.org/) -->

<svg
   width="265.21771mm"
   height="188.50185mm"
   viewBox="0 0 265.21771 188.50185"
   version="1.1"
   id="svg1"
   xml:space="preserve"
   inkscape:export-filename="Logo1.svg"
   inkscape:export-xdpi="96"
   inkscape:export-ydpi="96"
   xmlns:inkscape="http://www.inkscape.org/namespaces/inkscape"
   xmlns:sodipodi="http://sodipodi.sourceforge.net/DTD/sodipodi-0.dtd"
   xmlns="http://www.w3.org/2000/svg"
   xmlns:svg="http://www.w3.org/2000/svg"><sodipodi:namedview
     id="namedview1"
     pagecolor="#505050"
     bordercolor="#eeeeee"
     borderopacity="1"
     inkscape:showpageshadow="0"
     inkscape:pageopacity="0"
     inkscape:pagecheckerboard="0"
     inkscape:deskcolor="#505050"
     inkscape:document-units="mm" /><defs
     id="defs1" /><g
     inkscape:label="Capa 1"
     inkscape:groupmode="layer"
     id="layer1"
     transform="translate(33.974168,-37.25439)"><rect
       style="opacity:0;fill:#59a3ff;fill-opacity:1;stroke:none;stroke-width:1.12464;stroke-linejoin:round"
       id="rect8"
       width="265.21771"
       height="188.50185"
       x="-33.974167"
       y="37.254387" /></g><g
     inkscape:groupmode="layer"
     id="layer2"
     inkscape:label="Capa 2"
     style="display:inline;opacity:1;fill:#59a3ff;fill-opacity:1"
     transform="translate(33.974168,-37.25439)"><path
       id="rect7"
       style="display:inline;opacity:1;fill:#ffffff;fill-opacity:1;stroke:none;stroke-width:1;stroke-linejoin:round"
       d="M 40.686727,69.22691 V 98.315165 H 69.774982 V 69.22691 Z m 1.301398,1.278653 h 5.137357 l 8.082627,8.082627 6.621235,-6.621494 h -1.963599 l -4.543651,4.543651 -6.004783,-6.004784 h 0.410968 1.552631 l 3.927199,3.927199 3.92694,-3.927199 h 6.027788 l -9.954728,9.954728 -8.630584,-8.630584 H 44.202958 L 55.2536,82.880607 67.560149,70.574058 h 0.93618 v 5.182848 l -8.105372,8.105372 6.78097,6.781228 v -2.465807 l -4.337908,-4.338166 5.685055,-5.685315 v 1.849356 l -3.801582,3.801582 3.870077,3.870077 v 6.164776 L 58.587092,83.839533 67.263425,75.163199 V 72.925621 L 56.326769,83.862278 68.519074,96.054583 v 1.164409 h -5.091607 l -8.082369,-8.082368 -6.4615,6.461501 h 2.123334 l 4.372284,-4.372543 5.879426,5.879425 h -2.169084 l -3.824327,-3.824327 -3.938572,3.938312 h -6.301765 l 10.20596,-10.20596 8.699079,8.699078 h 2.237578 l -10.822413,-10.822412 -12.2608,12.2608 h -1.073169 v -5.319837 l 8.014132,-8.014132 -6.59849,-6.598232 v 2.23732 l 4.246668,4.246926 -5.685314,5.685056 v -1.849356 l 3.756092,-3.755832 -3.893081,-3.892823 v -6.096282 l 10.057599,10.057599 -8.664702,8.664702 v 2.374567 L 54.249184,83.885023 41.988125,71.624223 Z"
       transform="matrix(1.9993175,0,0,1.9993175,-72.834061,-32.996987)" /><text
       xml:space="preserve"
       style="font-style:normal;font-variant:normal;font-weight:normal;font-stretch:normal;font-size:50.8px;font-family:'Times New Roman';-inkscape-font-specification:'Times New Roman, ';display:inline;opacity:1;fill:#ffffff;fill-opacity:1;stroke:none;stroke-width:1;stroke-linejoin:round"
       x="75.847359"
       y="155.07564"
       id="text1"><tspan
         sodipodi:role="line"
         id="tspan1"
         style="font-style:normal;font-variant:normal;font-weight:normal;font-stretch:normal;font-family:'Times New Roman';-inkscape-font-specification:'Times New Roman, ';stroke:none;stroke-width:1"
         x="75.847359"
         y="155.07564"><tspan
   style="font-style:normal;font-variant:normal;font-weight:normal;font-stretch:normal;font-size:50.8px;font-family:Somatic;-inkscape-font-specification:Somatic"
   id="tspan3">P</tspan>Λ<tspan
   style="font-style:normal;font-variant:normal;font-weight:normal;font-stretch:normal;font-family:Somatic;-inkscape-font-specification:Somatic"
   id="tspan4">SS</tspan></tspan></text></g></svg>
