<?xml version="1.0" encoding="UTF-8" standalone="no"?>
<!-- Created with Inkscape (http://www.inkscape.org/) -->

<svg
   width="189.14441mm"
   height="188.50185mm"
   viewBox="0 0 189.14441 188.50185"
   version="1.1"
   id="svg1"
   xml:space="preserve"
   inkscape:export-filename="Logo1.svg"
   inkscape:export-xdpi="96"
   inkscape:export-ydpi="96"
   sodipodi:docname="Logo1.svg"
   xmlns:inkscape="http://www.inkscape.org/namespaces/inkscape"
   xmlns:sodipodi="http://sodipodi.sourceforge.net/DTD/sodipodi-0.dtd"
   xmlns="http://www.w3.org/2000/svg"
   xmlns:svg="http://www.w3.org/2000/svg"><sodipodi:namedview
     id="namedview1"
     pagecolor="#505050"
     bordercolor="#eeeeee"
     borderopacity="1"
     inkscape:showpageshadow="0"
     inkscape:pageopacity="0"
     inkscape:pagecheckerboard="0"
     inkscape:deskcolor="#505050"
     inkscape:document-units="mm" /><defs
     id="defs1" /><g
     inkscape:label="Capa 1"
     inkscape:groupmode="layer"
     id="layer1"
     transform="translate(-5.0547474,-37.254387)"><rect
       style="opacity:1;fill:#59a3ff;fill-opacity:1;stroke:none;stroke-width:0.949745;stroke-linejoin:round"
       id="rect8"
       width="189.14441"
       height="188.50185"
       x="5.0547481"
       y="37.254387" /></g><g
     inkscape:groupmode="layer"
     id="layer2"
     inkscape:label="Capa 2"
     style="display:inline;opacity:1;fill:#59a3ff;fill-opacity:1"
     transform="translate(-5.0547474,-37.254387)"><path
       id="rect7"
       style="display:inline;opacity:1;fill:#ffffff;fill-opacity:1;stroke:none;stroke-width:6.13825;stroke-linejoin:round"
       d="M 9.8346379,42.235664 V 220.7866 H 188.38557 V 42.235664 Z m 7.9883041,7.84869 H 49.357317 L 98.970486,99.697526 139.61328,59.053151 H 127.56022 L 99.670156,86.943213 62.811308,50.084354 h 2.522623 9.530435 l 24.10612,24.106129 24.104544,-24.106129 h 37.00005 L 98.970486,111.18894 45.99382,58.21228 H 31.418138 l 67.831588,67.83317 75.540654,-75.540657 h 5.7465 v 31.813608 l -49.75277,49.752789 41.62327,41.62486 v -15.13573 l -26.62716,-26.62875 34.89627,-34.897879 v 11.351819 l -23.33504,23.33505 23.75549,23.75549 v 37.84094 L 119.71153,131.93157 172.96901,78.674083 V 64.939269 l -67.1319,67.131921 74.83938,74.8394 v 7.14743 H 149.42295 L 99.811356,164.44644 60.14907,204.10874 h 13.03355 l 26.83817,-26.83975 36.08938,36.08936 H 122.79579 L 99.321116,189.88368 75.145185,214.05802 h -38.6818 l 62.646721,-62.64672 53.397104,53.39711 h 13.73481 L 99.811356,138.37775 24.551525,213.63759 H 17.964147 V 180.9831 L 67.156881,131.79037 26.653709,91.288777 v 13.733233 l 26.067103,26.06869 -34.89787,34.89628 v -11.3518 L 40.878768,131.58095 16.98207,107.68582 V 70.265341 l 61.736041,61.736039 -53.186093,53.1861 v 14.57568 L 93.084369,132.2108 17.822942,56.950968 Z" /></g></svg>
